<svg xmlns="http://www.w3.org/2000/svg" width="2878.795" height="955.917" viewBox="0 0 2878.795 955.917">
  <g id="Group_63628" data-name="Group 63628" transform="translate(54.111 -179.5)">
    <g id="Ellipse_63074" data-name="Ellipse 63074" transform="translate(340.693 231.403)" fill="none" stroke="#fec6d5" stroke-width="4">
      <ellipse cx="15.206" cy="15.577" rx="15.206" ry="15.577" stroke="none"/>
      <ellipse cx="15.206" cy="15.577" rx="13.206" ry="13.577" fill="none"/>
    </g>
    <path id="Union_1" data-name="Union 1" d="M15688.914,5210.5c-80.806-65.8-122.858-158.731-124.984-276.225-2.787-96.56-26.976-185.788-69.951-258.042-39.411-66.261-94.112-117.961-158.191-149.515a335.078,335.078,0,0,0-161.32-34.687c-59.01,2.049-117.224,19.03-173.026,50.47-86.848,48.938-163.325,130.4-237.286,209.178-107.822,114.844-209.662,223.318-339.534,225.452-1.3.021-2.585.032-3.88.032-75.591,0-149.1-36.385-224.553-111.125l-1.34-1.388c-46.614-50.6-83.347-112.121-118.873-171.614q-4.6-7.705-9.181-15.357a252.245,252.245,0,0,1-26.471,68.4c-68.733,121.676-223.549,164.612-345.168,96.016a258.591,258.591,0,0,1-39.351-27.488,300.1,300.1,0,0,0,122.891,130.643,37.342,37.342,0,0,1-36.769,65.007c-115.919-65.523-183.776-183.57-190.7-307.558q-6.1,5.226-15.311,12.952c-16.992,14.218-44.218,36.495-77.409,61.881-104.8,80.152-178.713,122.362-222.266,143.659l-42.242-71.73c99.166-48.488,232.363-154.393,297.409-208.968a54.069,54.069,0,0,1,58.988-90.348,50.945,50.945,0,0,1,9.486,6.945,136.4,136.4,0,0,0-93.217-111.863,20.636,20.636,0,0,1,.533,10.333,21.1,21.1,0,1,1-15.957-25.261,24.351,24.351,0,0,1,5.7,2.509l.411-1.775c63.216,14.262,107.632,67.467,114.057,128.638a375.325,375.325,0,0,1,24.677-57.053c1.077-1.884,2.077-3.82,3.194-5.731,68.734-121.608,223.521-164.556,345.044-95.9a252.851,252.851,0,0,1,53.6,40.473c14.085,12.578,30.337,32.123,54.564,62.819,36.192,44.731,69,94.645,101.961,149.854,33.235,55.669,67.6,113.222,108.173,157.477,57.331,56.593,109.128,84.146,158.228,84.146.718,0,1.436,0,2.149-.016,89.707-1.473,178.866-96.439,273.257-196.98,78.413-83.516,159.493-169.88,258.188-225.493,136.539-76.938,291.016-83.557,423.816-18.163,79.382,39.088,146.559,102.143,194.262,182.339a556.234,556.234,0,0,1,57.23,135.1c13.991,50.224,21.894,104,23.486,159.833l.008.4c.9,50.434,10.552,95.177,28.7,132.994a243.692,243.692,0,0,0,66.136,83.746c119.043,97.27,313.015,82.1,314.958,81.943l4.2,40.419,4.3,40.617c-2.312.2-17.364,1.432-40.972,1.432C15957.221,5313.917,15801.333,5302.031,15688.914,5210.5Zm-1956.979-433.416c85.755,48.45,194.9,18.11,243.394-67.64a178.373,178.373,0,0,0,12.4-148.537c-30.029-35.055-62.494-59.359-100.51-63.694-60.774-6.925-143.31,34.347-246.025,122.875A178.719,178.719,0,0,0,13731.936,4777.081ZM13537.424,4384.7a25.342,25.342,0,1,1,25.338,25.7A25.523,25.523,0,0,1,13537.424,4384.7Z" transform="translate(-13247.408 -4179)" fill="#ffc6d5" stroke="rgba(0,0,0,0)" stroke-width="1"/>
  </g>
</svg>
