<svg xmlns="http://www.w3.org/2000/svg" width="528" height="528" viewBox="0 0 528 528">
  <g id="Group_63633" data-name="Group 63633" transform="translate(-1040 -3045.385)">
    <circle id="Ellipse_63081" data-name="Ellipse 63081" cx="264" cy="264" r="264" transform="translate(1040 3045.385)" fill="#fcf7e0"/>
    <g id="Group_63550" data-name="Group 63550" transform="translate(1056.682 3099.445)">
      <path id="Path_78966" data-name="Path 78966" d="M1483.469,885.3h-82.178a5.72,5.72,0,1,1,0-11.441h82.178a5.72,5.72,0,1,1,0,11.441" transform="translate(-1317.734 -479.835)" fill="#ce8d6a"/>
      <path id="Path_78968" data-name="Path 78968" d="M1554.656,899.231h-6.764a7.383,7.383,0,1,0,0,14.767h6.764a7.383,7.383,0,0,0,0-14.767" transform="translate(-1397.321 -493.767)" fill="#233862"/>
      <path id="Path_78969" data-name="Path 78969" d="M1570.46,907.644a6.538,6.538,0,1,1-6.538-6.538,6.538,6.538,0,0,1,6.538,6.538" transform="translate(-1406.587 -494.797)" fill="#e8b491"/>
      <path id="Path_78970" data-name="Path 78970" d="M1424.656,899.231h-6.763a7.383,7.383,0,1,0,0,14.767h6.763a7.383,7.383,0,0,0,0-14.767" transform="translate(-1325.938 -493.767)" fill="#233862"/>
      <path id="Path_78971" data-name="Path 78971" d="M1440.46,907.644a6.538,6.538,0,1,1-6.538-6.538,6.538,6.538,0,0,1,6.538,6.538" transform="translate(-1335.204 -494.797)" fill="#e8b491"/>
      <path id="Path_78986" data-name="Path 78986" d="M1510.337,674.509a4.509,4.509,0,0,1-4.509-4.509V464.829h-100.3V670a4.509,4.509,0,0,1-9.018,0V455.811h118.332V670a4.509,4.509,0,0,1-4.509,4.509" transform="translate(-1318.253 -250.285)" fill="#ba7556"/>
      <path id="Path_78987" data-name="Path 78987" d="M2067.973,337.8h0l-23.344,110.25,9.229.058,21.4-101.068a7.656,7.656,0,0,0-7.284-9.239" transform="translate(-1674.132 -185.486)" fill="#41828c"/>
      <path id="Path_78988" data-name="Path 78988" d="M1967.748,760.535a4.51,4.51,0,0,1-4.483-4.072L1950.134,621.5h-63.059l-13.13,134.966a4.509,4.509,0,1,1-8.976-.874l13.924-143.11h79.425l13.923,143.11a4.509,4.509,0,0,1-4.051,4.925c-.149.014-.3.021-.442.021" transform="translate(-1575.469 -336.311)" fill="#41828c"/>
      <rect id="Rectangle_17253" data-name="Rectangle 17253" width="88.076" height="7.515" transform="translate(298.045 361.988)" fill="#41828c"/>
      <path id="Path_78989" data-name="Path 78989" d="M1857.748,760.535a4.509,4.509,0,0,1-4.482-4.072L1840.135,621.5h-63.059l-13.131,134.966a4.509,4.509,0,1,1-8.975-.874l13.923-143.11h79.426l13.923,143.11a4.51,4.51,0,0,1-4.051,4.925c-.149.014-.3.021-.442.021" transform="translate(-1515.069 -336.311)" fill="#7bb8c6"/>
      <rect id="Rectangle_17254" data-name="Rectangle 17254" width="88.076" height="7.515" transform="translate(250.1 361.988)" fill="#7bb8c6"/>
      <path id="Path_78990" data-name="Path 78990" d="M1763.749,595.913h139.929a6.8,6.8,0,0,0,0-13.6H1763.749a6.8,6.8,0,0,0,0,13.6" transform="translate(-1516.167 -319.746)" fill="#d86713"/>
      <path id="Path_78991" data-name="Path 78991" d="M1910.251,375.156h75.912a14.992,14.992,0,0,0,14.992-14.992V349.792a14.992,14.992,0,0,0-14.992-14.992h-75.912a14.993,14.993,0,0,0-14.993,14.992v10.371a14.993,14.993,0,0,0,14.993,14.992" transform="translate(-1592.113 -183.838)" fill="#d86713"/>
      <path id="Path_78992" data-name="Path 78992" d="M1547.3,722.749a4.405,4.405,0,0,1-3.664,3.065.043.043,0,0,1-.027,0c-3.284.611-8.21-.849-13.44-2.834-.67-.252-1.274-.472-1.819-.653-.144-.047-.287-.094-.427-.136-.112-.036-.223-.069-.33-.1-5.293-1.607-5.258.148-15.52-2.3-11.7-2.791-14.738-7.657-14.884-9.464-.119-1.531,5.266-1.443,11.3-1.382.291,0,.584,0,.879.009.8.009,1.611.01,2.416.014,7.208-.011,9.249-2.3,16.792-7.732,6.129-4.416,30.3-31.381,30.3-31.381l10.462,12.372s-21.248,18.066-22.211,24.777c-.509,3.585,1.074,6.333,1.012,9.528,0,.225-.009.448-.021.67a20.994,20.994,0,0,1-.813,5.546" transform="translate(-1373.533 -367.817)" fill="#e49963"/>
      <path id="Path_78993" data-name="Path 78993" d="M1547.3,770.319a4.405,4.405,0,0,1-3.664,3.065.043.043,0,0,1-.027,0c-3.41.39-8.273-1-13.42-2.864-.674-.243-1.282-.45-1.84-.624-.144-.047-.287-.094-.427-.136-.112-.036-.223-.068-.33-.1-5.293-1.607-5.258.148-15.52-2.3-11.7-2.791-14.738-7.657-14.884-9.464-.119-1.531,5.266-1.443,11.3-1.383a35.506,35.506,0,0,0,16.961,7.259c8.062,1.082,16.849-.2,22.688.329,0,.225-.009.448-.021.669a20.994,20.994,0,0,1-.813,5.546" transform="translate(-1373.533 -415.388)" fill="#1c468a"/>
      <path id="Path_78994" data-name="Path 78994" d="M1623.359,852.1c-.669,4.981-7.733,4.61-15.689,3.2s-5.948.744-17.176.224-14.87-4.462-15.317-6.1c-.4-1.451,5.077-2.323,10.942-3.382.738-.131,1.479-.27,2.219-.41,6.618-1.264,11.226-5.882,17.06-9.8,5.525-3.716,13.218-17.908,13.218-17.908l15.366.232s-7.243,12.7-10.007,18.2c-1.626,3.233-1.266,7.347-.834,10.515a19.7,19.7,0,0,1,.217,5.238" transform="translate(-1416.346 -449.118)" fill="#e49963"/>
      <path id="Path_78995" data-name="Path 78995" d="M1607.666,889.53c-8-1.153-5.921.937-17.159.781s-15.052-5.842-15.55-7.462c-.445-1.438,2.748-1.865,8.575-3.115l2.316-.513s7.17,5.949,16.447,5.275c7.561-.547,15.343-3.481,20.56-3.9a19.661,19.661,0,0,1,.388,5.227c-.507,5-7.579,4.859-15.576,3.706" transform="translate(-1416.213 -482.78)" fill="#1c468a"/>
      <path id="Path_78996" data-name="Path 78996" d="M1654.828,294.966s-3.65-8.943-7.665-9.308-16.791-2.372-17.7-.547,0,8.395,2.737,10.768,19.711,6.206,19.711,6.206Z" transform="translate(-1445.975 -156.139)" fill="#e49963"/>
      <path id="Path_78997" data-name="Path 78997" d="M1681.4,507.78l-47.827,81.845s-7.537,13.253-3.372,16.128a42.78,42.78,0,0,0,9.7,4.466s60.819-60.394,65.035-83.256S1681.4,507.78,1681.4,507.78" transform="translate(-1445.882 -278.702)" fill="#f7b33c"/>
      <path id="Path_78998" data-name="Path 78998" d="M1820.366,463.146s-100.1-3.363-118.389,9.273S1659.3,624.4,1659.3,624.4s1.921,1.413,6.093,1.69c3.88.257,12.292-2.368,12.292-2.368s40.731-63.588,43.134-79.28,1.081-29.552,8.011-30.213,104.438,8.606,112.253-18.088a56.385,56.385,0,0,0-5.8-44.888Z" transform="translate(-1462.546 -247.785)" fill="#f7b33c"/>
      <path id="Path_78999" data-name="Path 78999" d="M1890.851,80.695c-1.514-3.128-3.208-8.684-4.038-18.589.127.983,1.835,13.476,6.638,20.547,19.731,12.954,57.55,56.21,56.8,64.406,0,0,13.322-22.594,13.551-22.729,0,0,24.573-31.247-4.55-49.146-14.8-9.1-14.727-20.772-14.109-30.914s-4.037-53.8-33.688-42.377c0,0-4.758-2.114-6.89-1.8a5.819,5.819,0,0,1,2.626,1.247c-3.437-.2-8.351.051-12.453,2.382-10.87,6.176-20.6,61.594-3.889,76.972" transform="translate(-1584.759 0)"/>
      <path id="Path_79000" data-name="Path 79000" d="M1910.151,149.159c-.1.045,9.527,5.042,16.768,3.063,6.81-1.857,11.26-10.688,11.166-10.708-2.884-.573-3.715-4.536-3.654-21.567l-1.3.257-21.923,4.341s.5,6.9.514,13.4c.015,5.457-.316,10.633-1.565,11.216" transform="translate(-1600.29 -65.862)" fill="#e49963"/>
      <path id="Path_79001" data-name="Path 79001" d="M1912.484,124.856s.5,6.9.514,13.4c12.268-.346,18.752-11.537,21.409-17.74Z" transform="translate(-1601.572 -66.174)" fill="#d68d5d"/>
      <path id="Path_79002" data-name="Path 79002" d="M1919.859,60.367s6.429-10.158,7.972-18.844c1.1-6.2-2.057-29.188-25.156-25.877a31.369,31.369,0,0,0-13.015,4.919c-5.015,3.388-12.253,10.7-4.161,30.759l2.1,6.776Z" transform="translate(-1584.759 -8.413)"/>
      <path id="Path_79003" data-name="Path 79003" d="M1891.626,84.149s29.025.479,29.046-17.6,3.78-30.195-14.751-31.265-22.14,5.825-23.615,11.858,1.77,36.418,9.32,37.009" transform="translate(-1584.81 -19.313)" fill="#e49963"/>
      <path id="Path_79004" data-name="Path 79004" d="M1916.617,33.774s-19.825-13.555-26.1-4.182c-1.9-1.631-5.288-2.811-9.769,2.618-6.729,8.156-.74,22.574-.74,22.574,2.762.322,3.412-9.156,4.861-13.76,1.09-3.472,4.733-7.018,6.459-8.552,2.532,5.709,9.5,19.37,19.1,21.838,12.2,3.136,17.487-.132,17.487-.132a34.538,34.538,0,0,1-11.3-20.4" transform="translate(-1582.392 -14.435)"/>
      <path id="Path_79005" data-name="Path 79005" d="M1961.73,322.562c-1.566,4.346-6.366,5.465-12.8,4.71-12.268-1.432-30.493-9.67-43.626-15.368-20.023-8.678-29.124-.523-35.494-6.047s7.281-17.807-4.551-74.839c-4.014-19.34,21.4-60.836,21.4-60.836s1.759,11.242,26.541-2.4c.125-.069,10.434,13.67,19.659,31.149,10.166,19.285,19.9,42.58,17.042,54.585-5.461,22.885,16.382,56.423,11.831,69.051" transform="translate(-1575.404 -92.126)" fill="#ffeb99"/>
      <path id="Path_79006" data-name="Path 79006" d="M1780.94,173.108l-14.984,61.556s-1.866,3.322-4.791,8.049c-6.868,11.1-19.577,29.966-27.714,31.882-4.014.946-12.55-2.393-22-7.167-17.861-9.024-38.981-23.167-38.981-23.167-1.365-8.191,5.762-14.867,5.762-14.867s42.776,16.077,47.026,16.382c9.261.66,18.685-44.036,27.34-58.93,6.257-10.772,28.34-13.738,28.34-13.738" transform="translate(-1469.686 -95.053)" fill="#ffeb99"/>
      <path id="Path_79007" data-name="Path 79007" d="M1904.424,117.7s-.541,2.3-6.255,1.942c0,0-4.8-.3-4.651-2.821,0,0,4.652-1.8,10.906.878" transform="translate(-1591.155 -63.821)" fill="#fff"/>
      <path id="Path_79008" data-name="Path 79008" d="M2009.63,387.752c-1.565,4.346-6.366,5.465-12.8,4.71-8.491-3.7-45.173-17.911-44.764-27.54.61-14.257,7.053-14.712,2.5-32.309-3.654-14.129,30.24-40.4,35.646-46.113,10.166,19.285,10.446,20.2,7.585,32.2-5.461,22.885,16.382,56.424,11.831,69.051" transform="translate(-1623.304 -157.317)" fill="#fed337"/>
      <path id="Path_79009" data-name="Path 79009" d="M1808.847,324.491c-6.867,11.1-19.577,29.966-27.714,31.882-4.013.946-12.551-2.394-22-7.167a57.106,57.106,0,0,0,20.1,1.1c7.053-.682,9.1-9.328,20.25-22.3,7.23-8.41,9.006-6.293,9.361-3.518" transform="translate(-1517.368 -176.831)" fill="#fed337"/>
      <path id="Path_79010" data-name="Path 79010" d="M2120.336,674.509a4.509,4.509,0,0,1-4.509-4.509V468.286h-100.3V670a4.509,4.509,0,1,1-9.018,0V455.811h118.332V670a4.509,4.509,0,0,1-4.509,4.509" transform="translate(-1653.203 -250.285)" fill="#d86713"/>
      <rect id="Rectangle_17255" data-name="Rectangle 17255" width="126.161" height="11.667" transform="translate(368.477 197.916)" fill="#f2924a"/>
      <rect id="Rectangle_17256" data-name="Rectangle 17256" width="304.45" height="11.667" transform="translate(64.028 197.916)" fill="#d86713"/>
      <path id="Path_79011" data-name="Path 79011" d="M1805.415,282.828V258.173a6.363,6.363,0,0,0-6.363-6.363h-30.192a6.362,6.362,0,0,0-6.363,6.363h-48.913v22.746h42.55a6.362,6.362,0,0,1,6.363,6.362h.329a5.2,5.2,0,0,1,5.153,5.926l-3.831,27.335h-73.71v15.643h114.3V323.99a3.448,3.448,0,0,0-3.448-3.448l-1.072-27.858a5.2,5.2,0,0,1,2.3-4.523,6.442,6.442,0,0,0,2.9-5.334" transform="translate(-1479.647 -138.268)" fill="#41828c"/>
      <path id="Path_79012" data-name="Path 79012" d="M1781.113,282.828V258.173a6.363,6.363,0,0,0-6.362-6.363h-30.192a6.363,6.363,0,0,0-6.362,6.363h-48.913v22.746h42.55a6.362,6.362,0,0,1,6.363,6.362h.329a5.2,5.2,0,0,1,5.153,5.926l-3.831,27.335h-67.763a5.947,5.947,0,0,0-5.947,5.947v9.7h114.3V323.99a3.448,3.448,0,0,0-3.448-3.448l-1.073-27.858a5.2,5.2,0,0,1,2.3-4.523,6.442,6.442,0,0,0,2.9-5.334" transform="translate(-1466.303 -138.268)" fill="#7bb8c6"/>
      <path id="Path_79013" data-name="Path 79013" d="M1717.615,367.863h0v0Z" transform="translate(-1494.569 -201.415)" fill="#9ed9f0"/>
      <path id="Path_79014" data-name="Path 79014" d="M1688.875,251.81h-15.417a7.322,7.322,0,0,0-7.322,7.322v20.827a7.322,7.322,0,0,0,7.322,7.322h3.565v14.354a4.282,4.282,0,0,0,3.306,4.167v12.169h1.8V305.837a4.284,4.284,0,0,0,3.457-4.2V287.281h3.284a7.321,7.321,0,0,0,7.321-7.322V259.132a7.321,7.321,0,0,0-7.321-7.322" transform="translate(-1466.303 -138.268)" fill="#7bb8c6"/>
      <path id="Path_79015" data-name="Path 79015" d="M1698.584,231.145h-1.494v-9.469h1.41v-1.635h-3.988v-1.522h-.461v1.522h-3.611v1.635h1.578v9.469h-1.493v1.635h3.526V235.2h.461v-2.424h4.072Z" transform="translate(-1479.647 -119.989)" fill="#7bb8c6"/>
      <path id="Path_79016" data-name="Path 79016" d="M1914.922,245.43c-7.887,0-14.28,9.869-14.28,22.044s6.393,22.044,14.28,22.044,14.279-9.869,14.279-22.044-6.392-22.044-14.279-22.044m10.2,19.189h-4.663c-.58-2.681-1.952-4.8-3.688-5.694v-7.2c4.242,1.18,7.586,6.342,8.351,12.892m-12.051-12.892v7.2c-1.737.9-3.108,3.012-3.688,5.694h-4.663c.765-6.55,4.109-11.712,8.351-12.892m-8.351,18.6h4.663c.58,2.681,1.951,4.8,3.688,5.694v7.2c-4.243-1.18-7.586-6.342-8.351-12.892m12.051,12.892v-7.2c1.736-.9,3.108-3.012,3.688-5.694h4.663c-.765,6.55-4.109,11.712-8.351,12.892" transform="translate(-1595.07 -134.765)" fill="#1c468a"/>
      <path id="Path_79017" data-name="Path 79017" d="M1919.864,245.43c-7.886,0-14.279,9.869-14.279,22.044s6.393,22.044,14.279,22.044,14.28-9.869,14.28-22.044-6.393-22.044-14.28-22.044m10.2,19.189H1925.4c-.58-2.681-1.951-4.8-3.688-5.694v-7.2c4.243,1.18,7.587,6.342,8.352,12.892m-12.051-12.892v7.2c-1.737.9-3.108,3.012-3.688,5.694h-4.663c.765-6.55,4.109-11.712,8.351-12.892m-8.351,18.6h4.663c.58,2.681,1.951,4.8,3.688,5.694v7.2c-4.242-1.18-7.586-6.342-8.351-12.892m12.051,12.892v-7.2c1.737-.9,3.108-3.012,3.688-5.694h4.663c-.765,6.55-4.108,11.712-8.351,12.892" transform="translate(-1597.784 -134.765)" fill="#233862"/>
      <path id="Path_79018" data-name="Path 79018" d="M1938.29,316.921s-6.143-4.778-11.945-3.64-8.646,5.119-8.419,6.939,3.3,6.94,7.737,7.4,17.065-2.731,17.065-2.731Z" transform="translate(-1604.553 -171.926)" fill="#e49963"/>
      <path id="Path_79019" data-name="Path 79019" d="M1961.7,167.778s23.657,1.457,31.847,12.88c11.529,16.079,39.2,87.6,26.09,96.738-14.76,10.293-65.87-26.906-65.87-26.906s-1.744-8.153.683-12.1,31.853,6.516,33.673,4.7-18.845-25.722-18.845-31.183-7.577-44.127-7.577-44.127" transform="translate(-1623.909 -92.127)" fill="#ffeb99"/>
      <path id="Path_79020" data-name="Path 79020" d="M1471.244,400.718s-24.95,2.473-23.748,15.643c0,0-12.324,1.747-11.422,11.667s15.634,92.585,4.511,126.854,68.836,54.431,68.836,87.787H1222.948s58.617-1.214,64.028-28.869-20.14-66.076-5.11-92.105-.6-112.058,62.224-108.7c49.3-.3,81.876-20.253,99.235-13.94,16.12-2.593,27.919,1.661,27.919,1.661" transform="translate(-1222.948 -218.445)" fill="#a8d29f"/>
      <path id="Path_79021" data-name="Path 79021" d="M1580.274,592.81s-13.71,104.309,24.106,122.345-40.339,25.272-70.1,17.9c0,0,37.537,2.887,40.111-14.719s-11.855-69.61,5.881-125.522" transform="translate(-1393.901 -325.511)" fill="#83b978"/>
      <path id="Path_79022" data-name="Path 79022" d="M1439.384,619.379s-22.846-30.661-8.718-69.739,2.705-79.358,17.134-80.862,2.1,63.126-7.214,81.764-1.2,68.837-1.2,68.837" transform="translate(-1334.474 -257.392)" fill="#83b978"/>
      <path id="Path_79023" data-name="Path 79023" d="M1557.8,536.81s-19.588,48.461-10.6,105.844c0,0-17.344-47.63,10.6-105.844" transform="translate(-1398.076 -294.762)" fill="#83b978"/>
      <path id="Path_79024" data-name="Path 79024" d="M1691.926,404.56a18.7,18.7,0,0,0-14.316,14.091s-1.94-11.621,14.316-14.091" transform="translate(-1472.563 -222.143)" fill="#83b978"/>
      <path id="Path_79025" data-name="Path 79025" d="M1868.923,397.468l-.333-5.824-33.141,5.711Z" transform="translate(-1559.271 -215.051)" fill="#41828c"/>
      <path id="Path_79026" data-name="Path 79026" d="M1824.561,268.56s-.958,20.4,1.747,23.447c0,0-5.58-1.635-1.747-23.447" transform="translate(-1552.555 -147.466)" fill="#41828c"/>
      <path id="Path_79027" data-name="Path 79027" d="M1732.8,273.185v17.247s1.8-10.125,0-17.247" transform="translate(-1502.909 -150.006)" fill="#41828c"/>
    </g>
  </g>
</svg>
